# xmcd
#
# Track frame offsets:
#	150
#	16923
#	31007
#	45035
#	60150
#	76861
#	97904
#	111032
#	123271
#	143571
#	159595
#	174056
#
# Disc length: 2542 seconds
#
# Revision: 1
# Processed by: cddbd v1.5.1PL0 Copyright (c) Steve Scherf et al.
# Submitted via: audiograbber 1.83.01
#
DISCID=7009ec0c
DTITLE=Los Pinguos - Magia
DYEAR=2000
DGENRE=
TTITLE0=Fumaza
TTITLE1=Vengo
TTITLE2=Mi manera da amarte
TTITLE3=Leo
TTITLE4=Sirenas
TTITLE5=Sachita
TTITLE6=La Cantina
TTITLE7=Salvador
TTITLE8=Agua y Aceite
TTITLE9=Alegria
TTITLE10=Asi es mi vida
TTITLE11=Desde que te fuiste
EXTD=Composed and Produced by LOS PINGUOS\nrecorded in Buenos Aires - Argentini
EXTD=a, september 2000.\nmixed by Los Pinguos and Matias Zapata.
EXTT0=
EXTT1=
EXTT2=
EXTT3=
EXTT4=
EXTT5=
EXTT6=
EXTT7=
EXTT8=
EXTT9=
EXTT10=
EXTT11=
PLAYORDER=
